<svg width="20" height="20" viewBox="0 0 20 20" fill="none" xmlns="http://www.w3.org/2000/svg">
<path d="M12.5826 10.0783C12.4286 9.82669 12.2784 9.58135 12.1315 9.40573C11.9755 9.21934 11.7021 8.96298 11.284 8.97975C10.8659 8.99653 10.6139 9.27398 10.4734 9.47227C10.341 9.65909 10.2109 9.91566 10.0776 10.1788L8.42101 13.4452C8.35846 13.5686 8.30635 13.6713 8.25948 13.7595C8.20248 13.6774 8.13858 13.5816 8.06186 13.4666L7.91446 13.2455C7.745 12.9912 7.5949 12.7661 7.45101 12.5885C7.29495 12.3959 7.11918 12.2239 6.88226 12.0971C6.64533 11.9703 6.40476 11.9195 6.15794 11.8964C5.93037 11.8752 5.65975 11.8752 5.35422 11.8753L4.1665 11.8753C3.82133 11.8753 3.5415 12.1551 3.5415 12.5003C3.5415 12.8454 3.82133 13.1253 4.1665 13.1253H5.32854C5.66745 13.1253 5.87925 13.1259 6.04189 13.141C6.19165 13.155 6.25299 13.1781 6.29244 13.1992C6.33188 13.2203 6.38512 13.2585 6.47981 13.3754C6.58264 13.5023 6.70065 13.6782 6.88864 13.9602L7.04367 14.1928C7.20056 14.4282 7.35492 14.6599 7.50446 14.8252C7.66518 15.0028 7.93999 15.2396 8.34595 15.2155C8.75192 15.1913 8.99677 14.9237 9.13533 14.7283C9.26425 14.5465 9.3901 14.2982 9.51801 14.0458L11.1742 10.78C11.2395 10.6513 11.294 10.5439 11.3431 10.4515C11.3993 10.5396 11.4623 10.6423 11.5377 10.7654L12.0827 11.6552C12.2494 11.9275 12.397 12.1685 12.5402 12.3586C12.6955 12.5647 12.8729 12.7493 13.117 12.8861C13.3612 13.0229 13.6113 13.0777 13.8682 13.1024C14.1051 13.1253 14.3876 13.1253 14.7069 13.1253L15.8332 13.1253C16.1783 13.1253 16.4582 12.8454 16.4582 12.5003C16.4582 12.1551 16.1783 11.8753 15.8332 11.8753H14.7336C14.3796 11.8753 14.158 11.8746 13.9882 11.8582C13.8317 11.8431 13.7684 11.8182 13.7279 11.7955C13.6875 11.7729 13.6331 11.7319 13.5386 11.6064C13.4359 11.4701 13.3196 11.2815 13.1347 10.9796L12.5826 10.0783Z" fill="white"/>
<path fill-rule="evenodd" clip-rule="evenodd" d="M9.95202 1.04199C8.02836 1.04198 6.52083 1.04197 5.34459 1.20011C4.14065 1.36198 3.19063 1.69976 2.44495 2.44544C1.69928 3.19111 1.36149 4.14113 1.19963 5.34508C1.04148 6.52132 1.04149 8.02885 1.0415 9.95251V10.0481C1.04149 11.9718 1.04148 13.4793 1.19963 14.6556C1.36149 15.8595 1.69928 16.8095 2.44495 17.5552C3.19063 18.3009 4.14065 18.6387 5.34459 18.8005C6.52083 18.9587 8.02836 18.9587 9.95203 18.9587H10.0476C11.9713 18.9587 13.4788 18.9587 14.6551 18.8005C15.859 18.6387 16.8091 18.3009 17.5547 17.5552C18.3004 16.8095 18.6382 15.8595 18.8 14.6556C18.9582 13.4793 18.9582 11.9718 18.9582 10.0481V9.95252C18.9582 8.02885 18.9582 6.52132 18.8 5.34508C18.6382 4.14113 18.3004 3.19111 17.5547 2.44544C16.8091 1.69976 15.859 1.36198 14.6551 1.20011C13.4788 1.04197 11.9713 1.04198 10.0477 1.04199H9.95202ZM3.32883 3.32932C3.80355 2.85461 4.44582 2.5822 5.51115 2.43897C6.59447 2.29332 8.01798 2.29199 9.99984 2.29199C11.9817 2.29199 13.4052 2.29332 14.4885 2.43897C15.5539 2.5822 16.1961 2.85461 16.6708 3.32932C17.1456 3.80404 17.418 4.4463 17.5612 5.51164C17.7068 6.59495 17.7082 8.01847 17.7082 10.0003C17.7082 11.9822 17.7068 13.4057 17.5612 14.489C17.418 15.5543 17.1456 16.1966 16.6708 16.6713C16.1961 17.146 15.5539 17.4185 14.4885 17.5617C13.4052 17.7073 11.9817 17.7087 9.99984 17.7087C8.01798 17.7087 6.59447 17.7073 5.51115 17.5617C4.44582 17.4185 3.80355 17.146 3.32883 16.6713C2.85412 16.1966 2.58171 15.5543 2.43848 14.489C2.29283 13.4057 2.2915 11.9822 2.2915 10.0003C2.2915 8.01847 2.29283 6.59495 2.43848 5.51164C2.58171 4.4463 2.85412 3.80404 3.32883 3.32932Z" fill="white"/>
</svg>
