<svg width="24" height="24" viewBox="0 0 24 24" fill="none" xmlns="http://www.w3.org/2000/svg">
<path d="M15.8496 3C17.1617 3 17.8183 2.99999 18.2783 3.33398C18.4269 3.44192 18.5581 3.57311 18.666 3.72168C19 4.18168 19 4.83828 19 6.15039V14.9502C19 16.2625 19.0002 16.9189 18.666 17.3789C18.5581 17.5274 18.4269 17.6577 18.2783 17.7656C17.8183 18.0998 17.1619 18.0996 15.8496 18.0996H5V11.5498C5 7.98769 5.00007 6.2066 5.90723 4.95801C6.20019 4.55478 6.55478 4.20019 6.95801 3.90723C8.2066 3.00007 9.98769 3 13.5498 3H15.8496ZM9 9.25C8.58579 9.25 8.25 9.58579 8.25 10C8.25 10.4142 8.58579 10.75 9 10.75H13C13.4142 10.75 13.75 10.4142 13.75 10C13.75 9.58579 13.4142 9.25 13 9.25H9ZM9 6.25C8.58579 6.25 8.25 6.58579 8.25 7C8.25 7.41421 8.58579 7.75 9 7.75H15C15.4142 7.75 15.75 7.41421 15.75 7C15.75 6.58579 15.4142 6.25 15 6.25H9Z" fill="white"/>
<path d="M5 19V10.2C5 7.20021 5 5.70032 5.76393 4.64886C6.01065 4.30928 6.30928 4.01065 6.64886 3.76393C7.70032 3 9.20021 3 12.2 3H17.2C17.9499 3 18.3249 3 18.5878 3.19098C18.6727 3.25266 18.7473 3.32732 18.809 3.41221C19 3.67508 19 4.05005 19 4.8V19M6.5 21H17.5C17.9659 21 18.1989 21 18.3827 20.9239C18.6277 20.8224 18.8224 20.6277 18.9239 20.3827C19 20.1989 19 19.9659 19 19.5C19 19.0341 19 18.8011 18.9239 18.6173C18.8224 18.3723 18.6277 18.1776 18.3827 18.0761C18.1989 18 17.9659 18 17.5 18H6.5C5.67157 18 5 18.6716 5 19.5C5 20.3284 5.67157 21 6.5 21Z" stroke="white" stroke-width="1.5" stroke-linecap="round" stroke-linejoin="round"/>
</svg>
