<svg width="24" height="24" viewBox="0 0 24 24" fill="none" xmlns="http://www.w3.org/2000/svg">
<path d="M10.9355 2.48096C11.6388 2.34853 12.3612 2.34853 13.0645 2.48096C14.81 2.80981 16.2626 4.26306 19.168 7.16846C20.2686 8.26913 20.8195 8.81941 21.1719 9.48682C21.3168 9.76128 21.4357 10.0487 21.5273 10.3452C21.7501 11.0663 21.75 11.8445 21.75 13.4009V14.9165C21.75 17.7285 21.7501 19.1349 21.0342 20.1206C20.8029 20.439 20.5225 20.7194 20.2041 20.9507C19.2184 21.6668 17.8122 21.6665 15 21.6665H9C6.18784 21.6665 4.78164 21.6668 3.7959 20.9507C3.47754 20.7194 3.19712 20.439 2.96582 20.1206C2.24989 19.1349 2.25 17.7285 2.25 14.9165V13.4009C2.25 11.8445 2.24991 11.0663 2.47266 10.3452C2.56426 10.0487 2.68324 9.76128 2.82812 9.48682C3.18049 8.81941 3.73136 8.26913 4.83203 7.16846C7.73743 4.26306 9.19001 2.80981 10.9355 2.48096ZM8 16.2505C7.58579 16.2505 7.25 16.5863 7.25 17.0005C7.25025 17.4145 7.58594 17.7505 8 17.7505H16C16.4141 17.7505 16.7497 17.4145 16.75 17.0005C16.75 16.5863 16.4142 16.2505 16 16.2505H8Z" fill="white"/>
</svg>
