<svg width="18" height="18" viewBox="0 0 18 18" fill="none" xmlns="http://www.w3.org/2000/svg">
<path d="M9 2.25C12.7279 2.25 15.75 5.27208 15.75 9C15.75 12.7279 12.7279 15.75 9 15.75C5.27208 15.75 2.25 12.7279 2.25 9C2.25 5.27208 5.27208 2.25 9 2.25ZM6.63086 5.22363C6.23809 4.90369 5.65894 4.927 5.29297 5.29297C4.927 5.65894 4.90369 6.23809 5.22363 6.63086L5.29297 6.70703L7.58594 9L5.29297 11.293C4.90244 11.6835 4.90244 12.3165 5.29297 12.707C5.68349 13.0976 6.31651 13.0976 6.70703 12.707L9 10.4141L11.293 12.707C11.6835 13.0976 12.3165 13.0976 12.707 12.707C13.0976 12.3165 13.0976 11.6835 12.707 11.293L10.4141 9L12.707 6.70703L12.7764 6.63086C13.0963 6.23809 13.073 5.65894 12.707 5.29297C12.3411 4.927 11.7619 4.90369 11.3691 5.22363L11.293 5.29297L9 7.58594L6.70703 5.29297L6.63086 5.22363Z" fill="#EF4444"/>
</svg>
