<svg width="32" height="32" viewBox="0 0 32 32" fill="none" xmlns="http://www.w3.org/2000/svg">
<g clip-path="url(#clip0_1873_3682)">
<path d="M16 0C7.17733 0 0 7.17733 0 16C0 24.8227 7.17733 32 16 32C24.8227 32 32 24.8227 32 16C32 7.17733 24.8227 0 16 0Z" fill="#22C55E"/>
<path d="M24.1093 12.6093L15.4427 21.276C15.1827 21.536 14.8413 21.6667 14.5 21.6667C14.1587 21.6667 13.8173 21.536 13.5573 21.276L9.22401 16.9427C8.70267 16.4213 8.70267 15.5787 9.22401 15.0573C9.74534 14.536 10.588 14.536 11.1093 15.0573L14.5 18.448L22.224 10.724C22.7453 10.2027 23.588 10.2027 24.1093 10.724C24.6307 11.2453 24.6307 12.088 24.1093 12.6093Z" fill="#FAFAFA"/>
</g>
<defs>
<clipPath id="clip0_1873_3682">
<rect width="32" height="32" fill="white"/>
</clipPath>
</defs>
</svg>
