<svg width="24" height="24" viewBox="0 0 24 24" fill="none" xmlns="http://www.w3.org/2000/svg">
<path d="M13.6338 3C14.5602 3.00006 15.3662 3.60182 15.623 4.46094L15.6963 4.75391C15.8676 5.3302 16.4049 5.76074 17.0225 5.76074C18.4028 5.82113 19.3042 5.99047 20.0244 6.46289C20.5097 6.78126 20.9267 7.19053 21.251 7.66699C21.9998 8.76754 22 10.2995 22 13.3633C22 16.4275 21.9999 17.9599 21.251 19.0605C20.9267 19.537 20.5097 19.9463 20.0244 20.2646C18.9035 20.9998 17.3431 21 14.2227 21H9.77734C6.65685 21 5.09651 20.9998 3.97559 20.2646C3.4903 19.9463 3.07328 19.537 2.74902 19.0605C2.00006 17.9599 2 16.4275 2 13.3633C2 10.2995 2.00021 8.76754 2.74902 7.66699C3.07328 7.19053 3.4903 6.78126 3.97559 6.46289C4.69579 5.99047 5.59722 5.82113 6.97754 5.76074C7.59506 5.76074 8.13236 5.3302 8.30371 4.75391L8.37695 4.46094C8.63379 3.60182 9.4398 3.00006 10.3662 3H13.6338ZM12 9.27246C9.69892 9.27255 7.83403 11.104 7.83398 13.3633C7.83398 15.6226 9.69889 17.454 12 17.4541C14.3012 17.4541 16.167 15.6226 16.167 13.3633C16.1669 11.104 14.3012 9.27246 12 9.27246ZM12 10.9092C13.3807 10.9092 14.5 12.0077 14.5 13.3633C14.5 14.7189 13.3807 15.8184 12 15.8184C10.6194 15.8183 9.5 14.7188 9.5 13.3633C9.50005 12.0078 10.6194 10.9093 12 10.9092ZM17.5557 9.27246C17.0955 9.27249 16.7227 9.63897 16.7227 10.0908C16.7228 10.5426 17.0955 10.9092 17.5557 10.9092H18.667C19.1271 10.9091 19.4999 10.5426 19.5 10.0908C19.5 9.639 19.1272 9.27255 18.667 9.27246H17.5557Z" fill="white"/>
</svg>
