<svg width="22" height="19" viewBox="0 0 22 19" fill="none" xmlns="http://www.w3.org/2000/svg">
<mask id="mask0_1672_53" style="mask-type:luminance" maskUnits="userSpaceOnUse" x="0" y="0" width="22" height="19">
<path d="M16 18L21 9.5L16 1H6L1 9.5L6 18H16Z" fill="white" stroke="white" stroke-width="2" stroke-linejoin="round"/>
<path d="M11 12C11.663 12 12.2989 11.7366 12.7678 11.2678C13.2366 10.7989 13.5 10.163 13.5 9.5C13.5 8.83696 13.2366 8.20107 12.7678 7.73223C12.2989 7.26339 11.663 7 11 7C10.337 7 9.70107 7.26339 9.23223 7.73223C8.76339 8.20107 8.5 8.83696 8.5 9.5C8.5 10.163 8.76339 10.7989 9.23223 11.2678C9.70107 11.7366 10.337 12 11 12Z" fill="black" stroke="black" stroke-width="2" stroke-linejoin="round"/>
</mask>
<g mask="url(#mask0_1672_53)">
<path d="M-1 -2.5H23V21.5H-1V-2.5Z" fill="white"/>
</g>
</svg>
