<svg width="16" height="16" viewBox="0 0 16 16" fill="none" xmlns="http://www.w3.org/2000/svg">
<path d="M10.7752 4.55774C12.9251 6.0192 14 6.74993 14 7.99973C14 9.24953 12.9251 9.98026 10.7752 11.4417C10.1817 11.8452 9.59312 12.225 9.05222 12.5415C8.57769 12.8192 8.04027 13.1065 7.48387 13.3884C5.33906 14.4753 4.26666 15.0187 3.30483 14.4171C2.343 13.8154 2.25559 12.5558 2.08076 10.0366C2.03132 9.32423 2 8.62583 2 7.99973C2 7.37363 2.03132 6.67523 2.08076 5.96281C2.25559 3.44365 2.343 2.18408 3.30483 1.58239C4.26666 0.98071 5.33906 1.52416 7.48387 2.61105C8.04027 2.89301 8.57769 3.18024 9.05222 3.45793C9.59312 3.77445 10.1817 4.15429 10.7752 4.55774Z" fill="white"/>
</svg>
