<svg width="24" height="24" viewBox="0 0 24 24" fill="none" xmlns="http://www.w3.org/2000/svg">
<path d="M9.0293 3.34375C10.983 2.88548 13.017 2.88548 14.9707 3.34375C17.7917 4.00563 19.9944 6.20832 20.6562 9.0293C21.1145 10.983 21.1145 13.017 20.6562 14.9707C19.9944 17.7917 17.7917 19.9944 14.9707 20.6562C13.017 21.1145 10.983 21.1145 9.0293 20.6562C6.20832 19.9944 4.00563 17.7917 3.34375 14.9707C2.88548 13.017 2.88548 10.983 3.34375 9.0293C4.00564 6.20832 6.20832 4.00564 9.0293 3.34375ZM10.9883 13.0117C10.754 12.7775 10.374 12.7775 10.1396 13.0117L8.64941 14.501L8.11621 13.9688C7.88201 13.7348 7.50281 13.7349 7.26855 13.9688C7.03424 14.2031 7.03424 14.5831 7.26855 14.8174L8.22559 15.7744C8.4599 16.0087 8.83992 16.0087 9.07422 15.7744L10.9883 13.8604C11.2225 13.626 11.2225 13.246 10.9883 13.0117ZM12.957 14.2715C12.6259 14.2717 12.3575 14.5409 12.3574 14.8721C12.3576 15.2032 12.626 15.4714 12.957 15.4717H16.3076C16.6388 15.4716 16.908 15.2032 16.9082 14.8721C16.9082 14.5408 16.6389 14.2716 16.3076 14.2715H12.957ZM10.9883 8.22559C10.754 7.99131 10.374 7.9914 10.1396 8.22559L8.64941 9.71484L8.11621 9.18262C7.88197 8.94852 7.50285 8.9486 7.26855 9.18262C7.03424 9.41693 7.03424 9.79694 7.26855 10.0312L8.22559 10.9883C8.33803 11.1006 8.49045 11.164 8.64941 11.1641C8.80848 11.164 8.96174 11.1008 9.07422 10.9883L10.9883 9.07324C11.2223 8.83896 11.2224 8.45984 10.9883 8.22559ZM12.957 9.48535C12.626 9.48558 12.3577 9.75395 12.3574 10.085C12.3574 10.4162 12.6259 10.6853 12.957 10.6855H16.3076C16.6389 10.6855 16.9082 10.4163 16.9082 10.085C16.908 9.75386 16.6388 9.48544 16.3076 9.48535H12.957Z" fill="white"/>
</svg>
